<svg xmlns="http://www.w3.org/2000/svg" xmlns:xlink="http://www.w3.org/1999/xlink" width="500" zoomAndPan="magnify" viewBox="0 0 375 374.999991" height="500" preserveAspectRatio="xMidYMid meet" version="1.0"><defs><g/><clipPath id="26b6b4b8ac"><path d="M 9.382812 9.382812 L 365.617188 9.382812 L 365.617188 365.617188 L 9.382812 365.617188 Z M 9.382812 9.382812 " clip-rule="nonzero"/></clipPath><clipPath id="bd3ecb72fd"><path d="M 187.5 9.382812 C 89.128906 9.382812 9.382812 89.128906 9.382812 187.5 C 9.382812 285.871094 89.128906 365.617188 187.5 365.617188 C 285.871094 365.617188 365.617188 285.871094 365.617188 187.5 C 365.617188 89.128906 285.871094 9.382812 187.5 9.382812 Z M 187.5 9.382812 " clip-rule="nonzero"/></clipPath></defs><g clip-path="url(#26b6b4b8ac)"><g clip-path="url(#bd3ecb72fd)"><path fill="#000000" d="M 9.382812 9.382812 L 365.617188 9.382812 L 365.617188 365.617188 L 9.382812 365.617188 Z M 9.382812 9.382812 " fill-opacity="1" fill-rule="nonzero"/></g></g><g fill="#ffffff" fill-opacity="1"><g transform="translate(87.487134, 204.381666)"><g><path d="M 29.046875 -48.875 L 28.5625 -48.875 C 26.269531 -48.820312 24.613281 -48.660156 23.59375 -48.390625 C 22.582031 -48.128906 21.90625 -47.582031 21.5625 -46.75 C 21.21875 -45.925781 21.046875 -44.582031 21.046875 -42.71875 C 21.046875 -37.488281 20.816406 -33.515625 20.359375 -30.796875 C 19.910156 -28.078125 19.191406 -26.035156 18.203125 -24.671875 C 17.210938 -23.316406 15.734375 -22 13.765625 -20.71875 C 15.785156 -19.601562 17.300781 -18.226562 18.3125 -16.59375 C 19.332031 -14.96875 20.023438 -12.796875 20.390625 -10.078125 C 20.765625 -7.359375 20.984375 -3.546875 21.046875 1.359375 C 21.046875 3.171875 21.242188 4.488281 21.640625 5.3125 C 22.035156 6.144531 22.726562 6.691406 23.71875 6.953125 C 24.707031 7.222656 26.296875 7.382812 28.484375 7.4375 L 29.046875 7.4375 L 29.046875 16.796875 L 25.921875 16.796875 C 21.390625 16.796875 18.03125 16.078125 15.84375 14.640625 C 13.65625 13.203125 12.28125 11.375 11.71875 9.15625 C 11.15625 6.945312 10.875 4.03125 10.875 0.40625 L 10.875 -2.15625 C 10.875 -5.414062 10.6875 -7.976562 10.3125 -9.84375 C 9.945312 -11.707031 9.148438 -13.171875 7.921875 -14.234375 C 6.691406 -15.304688 4.820312 -15.894531 2.3125 -16 L 2.3125 -25.4375 C 4.5625 -25.539062 6.285156 -26.003906 7.484375 -26.828125 C 8.679688 -27.660156 9.546875 -28.984375 10.078125 -30.796875 C 10.609375 -32.609375 10.875 -35.113281 10.875 -38.3125 L 10.875 -41.59375 C 10.875 -45.539062 11.21875 -48.675781 11.90625 -51 C 12.601562 -53.320312 14.085938 -55.109375 16.359375 -56.359375 C 18.628906 -57.609375 22.03125 -58.234375 26.5625 -58.234375 L 29.046875 -58.234375 Z M 29.046875 -48.875 "/></g></g></g><g fill="#ffffff" fill-opacity="1"><g transform="translate(118.604109, 204.381666)"><g><path d="M 30.484375 -58.234375 C 36.347656 -58.234375 41.304688 -56.804688 45.359375 -53.953125 C 49.410156 -51.109375 52.101562 -46.9375 53.4375 -41.4375 L 42 -38.71875 C 41.300781 -41.707031 39.882812 -44.050781 37.75 -45.75 C 35.625 -47.457031 33.015625 -48.3125 29.921875 -48.3125 C 25.441406 -48.3125 21.945312 -46.722656 19.4375 -43.546875 C 16.9375 -40.378906 15.6875 -35.546875 15.6875 -29.046875 C 15.6875 -23.066406 16.710938 -18.222656 18.765625 -14.515625 C 20.816406 -10.804688 24.484375 -8.953125 29.765625 -8.953125 C 33.117188 -8.953125 35.835938 -10.019531 37.921875 -12.15625 C 40.003906 -14.289062 41.5 -17.253906 42.40625 -21.046875 L 53.59375 -17.515625 C 52.050781 -11.273438 49.222656 -6.632812 45.109375 -3.59375 C 41.003906 -0.5625 35.914062 0.953125 29.84375 0.953125 C 24.664062 0.953125 20.101562 -0.242188 16.15625 -2.640625 C 12.207031 -5.035156 9.15625 -8.421875 7 -12.796875 C 4.84375 -17.171875 3.765625 -22.289062 3.765625 -28.15625 C 3.765625 -33.382812 4.671875 -38.28125 6.484375 -42.84375 C 8.296875 -47.40625 11.203125 -51.109375 15.203125 -53.953125 C 19.203125 -56.804688 24.296875 -58.234375 30.484375 -58.234375 Z M 30.484375 -58.234375 "/></g></g></g><g fill="#ffffff" fill-opacity="1"><g transform="translate(176.3585, 204.381666)"><g><path d="M 8 1.921875 L -0.078125 1.921875 L 13.921875 -57.28125 L 22.15625 -57.28125 Z M 8 1.921875 "/></g></g></g><g fill="#ffffff" fill-opacity="1"><g transform="translate(198.596337, 204.381666)"><g><path d="M 41.59375 -56 C 44.207031 -55.09375 46.4375 -53.4375 48.28125 -51.03125 C 50.125 -48.632812 51.046875 -45.914062 51.046875 -42.875 C 51.046875 -39.78125 50.191406 -37.140625 48.484375 -34.953125 C 46.773438 -32.773438 44.929688 -31.285156 42.953125 -30.484375 C 46.796875 -29.359375 49.570312 -27.515625 51.28125 -24.953125 C 52.988281 -22.398438 53.84375 -19.628906 53.84375 -16.640625 C 53.84375 -13.335938 52.878906 -10.191406 50.953125 -7.203125 C 49.035156 -4.210938 46.453125 -2.210938 43.203125 -1.203125 C 41.765625 -0.722656 39.953125 -0.398438 37.765625 -0.234375 C 35.578125 -0.078125 32.910156 0 29.765625 0 L 5.84375 0 L 5.84375 -57.28125 L 29.765625 -57.28125 C 32.535156 -57.28125 34.835938 -57.195312 36.671875 -57.03125 C 38.515625 -56.875 40.15625 -56.53125 41.59375 -56 Z M 39.765625 -41.046875 C 39.765625 -42.535156 39.398438 -43.769531 38.671875 -44.75 C 37.953125 -45.738281 37.035156 -46.472656 35.921875 -46.953125 C 34.910156 -47.378906 32.960938 -47.59375 30.078125 -47.59375 L 17.359375 -47.59375 L 17.359375 -34.484375 L 30.3125 -34.484375 C 36.613281 -34.484375 39.765625 -36.671875 39.765625 -41.046875 Z M 35.84375 -10 C 37.601562 -10.269531 39.054688 -11.003906 40.203125 -12.203125 C 41.347656 -13.398438 41.921875 -14.984375 41.921875 -16.953125 C 41.921875 -19.191406 41.359375 -20.882812 40.234375 -22.03125 C 39.117188 -23.1875 37.613281 -23.9375 35.71875 -24.28125 C 33.820312 -24.625 31.351562 -24.796875 28.3125 -24.796875 L 17.359375 -24.796875 L 17.359375 -9.6875 L 29.359375 -9.6875 C 32.128906 -9.6875 34.289062 -9.789062 35.84375 -10 Z M 35.84375 -10 "/></g></g></g><g fill="#ffffff" fill-opacity="1"><g transform="translate(256.350728, 204.381666)"><g><path d="M 19.921875 -41.765625 L 19.921875 -39.28125 C 19.921875 -36.03125 20.109375 -33.484375 20.484375 -31.640625 C 20.859375 -29.796875 21.644531 -28.34375 22.84375 -27.28125 C 24.039062 -26.21875 25.835938 -25.601562 28.234375 -25.4375 L 28.484375 -25.4375 L 28.484375 -16 L 28.234375 -16 C 26.109375 -15.84375 24.441406 -15.347656 23.234375 -14.515625 C 22.035156 -13.691406 21.179688 -12.382812 20.671875 -10.59375 C 20.171875 -8.8125 19.921875 -6.320312 19.921875 -3.125 L 19.921875 0.15625 C 19.921875 4.15625 19.585938 7.285156 18.921875 9.546875 C 18.253906 11.816406 16.785156 13.59375 14.515625 14.875 C 12.253906 16.15625 8.851562 16.796875 4.3125 16.796875 L 1.765625 16.796875 L 1.765625 7.4375 L 2.234375 7.4375 C 4.535156 7.382812 6.191406 7.222656 7.203125 6.953125 C 8.210938 6.691406 8.890625 6.144531 9.234375 5.3125 C 9.585938 4.488281 9.765625 3.144531 9.765625 1.28125 C 9.765625 -3.945312 9.988281 -7.921875 10.4375 -10.640625 C 10.894531 -13.359375 11.613281 -15.394531 12.59375 -16.75 C 13.582031 -18.113281 15.066406 -19.4375 17.046875 -20.71875 C 15.015625 -21.84375 13.488281 -23.203125 12.46875 -24.796875 C 11.457031 -26.398438 10.765625 -28.570312 10.390625 -31.3125 C 10.023438 -34.0625 9.816406 -37.890625 9.765625 -42.796875 C 9.765625 -44.609375 9.5625 -45.925781 9.15625 -46.75 C 8.757812 -47.582031 8.066406 -48.128906 7.078125 -48.390625 C 6.085938 -48.660156 4.5 -48.820312 2.3125 -48.875 L 1.765625 -48.875 L 1.765625 -58.234375 L 4.875 -58.234375 C 9.351562 -58.234375 12.6875 -57.515625 14.875 -56.078125 C 17.0625 -54.640625 18.445312 -52.800781 19.03125 -50.5625 C 19.625 -48.320312 19.921875 -45.390625 19.921875 -41.765625 Z M 19.921875 -41.765625 "/></g></g></g></svg>